<?xml version="1.0" standalone="no"?><!DOCTYPE svg PUBLIC "-//W3C//DTD SVG 1.1//EN" "http://www.w3.org/Graphics/SVG/1.1/DTD/svg11.dtd"><svg t="1678258726574" class="icon" viewBox="0 0 1024 1024" version="1.1" xmlns="http://www.w3.org/2000/svg" p-id="5594" xmlns:xlink="http://www.w3.org/1999/xlink" width="200" height="200"><path d="M598.75 122.68a34.489 34.489 0 0 1 9.539 23.812V330.34a29.764 29.764 0 0 1 15.144 4.368c64.215 39.125 103.874 104.523 103.874 176.378 0 69.617-37.224 133.258-98.188 172.801a29.79 29.79 0 0 1-20.83 4.467v189.154c0 19.05-15.445 34.492-34.498 34.492a34.501 34.501 0 0 1-23.816-9.538l-188.657-179.99a46.002 46.002 0 0 0-31.754-12.718H198.497c-31.755 0-57.497-25.737-57.497-57.486V371.732c0-31.749 25.742-57.486 57.497-57.486h131.067a46.002 46.002 0 0 0 31.754-12.718l188.657-179.99c13.784-13.15 35.621-12.64 48.774 1.142z m192.265 701.485c8.021-14.43 26.224-19.627 40.657-11.608l69.754 38.76 0.65 0.37c13.938 8.2 18.86 26.067 10.96 40.28-8.022 14.43-26.225 19.627-40.658 11.607l-69.753-38.758-0.65-0.372c-13.938-8.199-18.86-26.067-10.96-40.279zM608.289 396.726v228.715c37.406-28.848 59.22-70.172 59.22-114.355 0-44.226-21.874-85.563-59.22-114.36z m287.796 78.889c16.191-0.016 29.513 12.902 29.906 29.171 0.399 16.505-12.66 30.208-29.168 30.607l-85.08 2.054-0.707 0.01c-16.19 0.015-29.512-12.903-29.905-29.172-0.4-16.505 12.66-30.208 29.167-30.607l85.082-2.054z m-3.734-345.313c7.9 14.213 2.978 32.08-10.96 40.28l-0.65 0.37-69.754 38.76c-14.433 8.02-32.636 2.822-40.657-11.608-7.9-14.212-2.978-32.08 10.96-40.28l0.65-0.37 69.753-38.76c14.434-8.02 32.637-2.822 40.658 11.608z" fill="#f4ea2a" p-id="5595"></path></svg>