<?xml version="1.0" encoding="UTF-8"?>
<svg width="323px" height="298px" viewBox="0 0 323 298" version="1.1" xmlns="http://www.w3.org/2000/svg" xmlns:xlink="http://www.w3.org/1999/xlink">
    <title>人物/男性/10</title>
    <defs>
        <linearGradient x1="50%" y1="100.018916%" x2="50%" y2="-0.00540445597%" id="linearGradient-1">
            <stop stop-color="#ED4B20" offset="0%"></stop>
            <stop stop-color="#FF6E47" offset="100%"></stop>
        </linearGradient>
        <linearGradient x1="50%" y1="100.000819%" x2="50%" y2="-0.00163896811%" id="linearGradient-2">
            <stop stop-color="#EC491E" offset="0%"></stop>
            <stop stop-color="#FF6E47" offset="74.5%"></stop>
            <stop stop-color="#FF6E47" offset="100%"></stop>
        </linearGradient>
    </defs>
    <g id="页面-1" stroke="none" stroke-width="1" fill="none" fill-rule="evenodd">
        <g id="人物/男性/10" transform="translate(-1.000000, 0.000000)">
            <g transform="translate(6.000000, 0.000000)">
                <g id="腿" transform="translate(124.000000, 125.000000)">
                    <path d="M23.5245405,119.265555 L23.5067027,122.984072 C23.8974645,123.755385 24.4570714,124.429405 25.1442162,124.956379 C26.1434943,125.647463 27.2227408,126.215979 28.3585946,126.649619 C28.3585946,126.649619 34.4983784,128.868997 36.8708108,131.768801 C39.1148108,134.510051 37.5985946,137.940614 37.5985946,137.940614 L37.2846486,138.965161 L6.13621622,129.770542 L10.4137297,115.767803 L23.7314595,118.582642 L23.5245405,119.265555 Z" id="脚_" fill="#1B1B1B"></path>
                    <polygon id="脚" fill="#FFDEC4" points="22.3650811 118.17844 22.6683243 114.004529 12.2117838 111.675302 11.0987027 115.969726"></polygon>
                    <path d="M34.8694054,0.317104859 C34.8694054,0.317104859 42.4397838,4.11063171 48.9827027,8.16687212 C52.852071,10.5879858 56.5923725,13.2081183 60.1884324,16.0166394 C60.1884324,16.0166394 64.6229189,19.186266 65.5861622,21.8002481 C66.8597838,25.2628056 64.7549189,28.4125243 64.7549189,28.4125243 L27.3953514,115.169499 L11.5589189,111.979609 L34.8016216,43.8116624 L38.172973,33.7418056 L0,15.6031944 C0,15.6031944 11.3377297,7.7011688 21.5837838,3.20908696 C27.5701622,0.584795396 34.8694054,0.317104859 34.8694054,0.317104859 Z" id="腿-2" fill="#262626"></path>
                </g>
                <g id="自行车" transform="translate(0.000000, 116.000000)">
                    <path d="M136.684691,140.579977 L154.456881,146.007142 C155.967271,146.467588 156.818079,148.064159 156.357216,149.573181 C155.896352,151.082204 154.298336,151.932243 152.787946,151.471796 L135.015756,146.044275 C134.038769,145.746418 133.295045,144.950443 133.064736,143.956184 C132.834428,142.961926 133.152525,141.920437 133.899204,141.224035 C134.645882,140.527634 135.707704,140.282121 136.684691,140.579977 L136.684691,140.579977 Z" id="自行车-2" fill="#575454"></path>
                    <g id="轮胎" transform="translate(0.000000, 64.983150)">
                        <g id="轮胎-2" transform="translate(200.843978, 0.000000)">
                            <path d="M55.7502857,5.68852371 C76.1366748,5.68390355 94.5182605,17.9497003 102.322999,36.7659003 C110.127738,55.5821002 105.818456,77.2427786 91.4047369,91.6467241 C76.9910183,106.05067 55.3117022,110.360968 36.4766914,102.567561 C17.6416806,94.7741542 5.36060439,76.4119838 5.36060439,56.0440397 C5.35764364,28.2366935 27.9177569,5.69187711 55.7502857,5.68852371 L55.7502857,5.68852371 Z" id="轮胎-3" stroke="#674E44" stroke-width="20"></path>
                            <path d="M55.9289725,0.331341169 C78.5565039,0.326143507 98.9588762,13.9403058 107.621664,34.8250121 C116.284451,55.7097184 111.501481,79.7516374 95.5032398,95.7390803 C79.5049987,111.726523 55.4424077,116.510695 34.536796,107.86055 C13.6311843,99.2104041 -1.6251471e-13,78.8296236 -1.6251471e-13,56.2225648 C-0.0031581472,25.3584079 25.0368647,0.335286293 55.9289725,0.331341169 Z" id="轮胎-4" stroke="#362E2B" stroke-width="9"></path>
                            <path d="M56.9153237,57.4036872 L57.2262388,57.2330171 C57.6594881,56.9975386 58.2017698,57.1573589 58.4377354,57.5900674 L79.1403895,95.5291587 C79.2538031,95.7370991 79.2798656,95.9815434 79.2128404,96.2086872 C79.1458152,96.435831 78.991196,96.6270565 78.7830159,96.7402732 L78.4721009,96.9113003 C78.0388515,97.1467789 77.4965698,96.9869585 77.2606043,96.55425 L56.5579501,58.6151587 C56.4444232,58.4071845 56.418298,58.162653 56.4853288,57.9354233 C56.5523596,57.7081936 56.7070482,57.5169042 56.9153237,57.4036872 Z M33.4751876,14.4480395 L33.7896764,14.2770124 C34.2229257,14.0415338 34.7652074,14.2013542 35.001173,14.6340627 L55.7002534,52.5727969 C55.8147429,52.7801958 55.8417789,53.0246306 55.7753773,53.252001 C55.7089757,53.4793713 55.5546128,53.670926 55.3464535,53.7842685 L55.0319647,53.9552956 C54.5987154,54.1907741 54.0564337,54.0309537 53.8204681,53.5982453 L33.1178139,15.659154 C33.0044004,15.4512136 32.9783379,15.2067693 33.0453631,14.9796255 C33.1123883,14.7524817 33.2670075,14.5612562 33.4751876,14.4480395 L33.4751876,14.4480395 Z M15.3849346,76.7804486 L53.3487349,56.0925985 C53.7819843,55.85712 54.324266,56.0169404 54.5602315,56.4496488 L54.7317709,56.763496 C54.8451844,56.9714364 54.8712469,57.2158807 54.8042217,57.4430245 C54.7371965,57.6701683 54.5825773,57.8613938 54.3743972,57.9746105 L16.4105969,78.6624607 C15.9773476,78.8979392 15.4350659,78.7381188 15.1991003,78.3054104 L15.027561,77.9919202 C14.9140341,77.783946 14.8879089,77.5394145 14.9549397,77.3121848 C15.0219705,77.0849551 15.1766591,76.8936657 15.3849346,76.7804486 L15.3849346,76.7804486 Z M58.3698344,53.3579505 L96.3336347,32.6701004 C96.7668841,32.4346218 97.3091657,32.5944422 97.5451313,33.0271506 L97.7166706,33.3406408 C97.8301975,33.548615 97.8563227,33.7931465 97.7892919,34.0203762 C97.7222611,34.2476059 97.5675726,34.4388954 97.359297,34.5521124 L59.3954967,55.2378202 C58.9622473,55.4732987 58.4199657,55.3134783 58.1840001,54.8807699 L58.0124608,54.5672798 C57.7765263,54.1343391 57.9365227,53.592282 58.3698344,53.3565223 L58.3698344,53.3579505 Z M57.697972,56.9220263 L57.9016749,56.628174 C58.0366385,56.4334605 58.2435232,56.3003187 58.4767793,56.2580625 C58.7100353,56.2158064 58.9505378,56.2679005 59.1453352,56.4028752 L94.6932898,81.0097092 C95.0970119,81.2917524 95.1975253,81.8463077 94.9184351,82.2518871 L94.7147322,82.5453824 C94.5798238,82.7401531 94.3729649,82.873367 94.1397052,82.9156907 C93.9064456,82.9580145 93.6659129,82.9059775 93.471072,82.7710382 L57.9231174,58.1634901 C57.518951,57.8814081 57.4183976,57.3263133 57.697972,56.9205981 L57.697972,56.9220263 Z M17.4505542,29.0613932 L17.6542571,28.7678979 C17.7891655,28.5731272 17.9960244,28.4399133 18.2292841,28.3975896 C18.4625437,28.3552658 18.7030764,28.4073028 18.8979174,28.5422421 L54.445872,53.1490761 C54.640603,53.2839679 54.7737229,53.4906226 54.8159461,53.7235772 C54.8581692,53.9565317 54.8060366,54.1967028 54.6710174,54.391254 L54.4673144,54.6847493 C54.332406,54.8795199 54.1255471,55.0127339 53.8922874,55.0550576 C53.6590278,55.0973814 53.4184951,55.0453444 53.2236542,54.9104051 L17.6756996,30.3035711 C17.2710885,30.0214505 17.170495,29.4658157 17.4505542,29.059965 L17.4505542,29.0613932 Z M29.3010636,92.8727046 L53.9241065,57.3501296 C54.0590148,57.155359 54.2658738,57.0221451 54.4991334,56.9798213 C54.7323931,56.9374975 54.9729258,56.9895345 55.1677667,57.1244738 L55.4608131,57.3279925 C55.6561701,57.4623907 55.7897941,57.6690968 55.8320589,57.9022816 C55.8743238,58.1354664 55.8217373,58.3758622 55.6859584,58.5701704 L31.0629156,94.0931025 C30.9279521,94.287816 30.7210673,94.4209577 30.4878113,94.4632139 C30.2545552,94.50547 30.0140527,94.4533759 29.8192554,94.3184012 L29.526209,94.1152396 C29.3304985,93.9806964 29.1966476,93.7736595 29.154375,93.540097 C29.1121024,93.3065344 29.1649066,93.0657758 29.3010636,92.8712764 L29.3010636,92.8727046 Z M57.1797802,52.651348 L81.8028231,17.1284159 C81.9377866,16.9337024 82.1446714,16.8005606 82.3779274,16.7583045 C82.6111834,16.7160483 82.8516859,16.7681424 83.0464833,16.9031172 L83.3395297,17.1066358 C83.5348867,17.2410341 83.6685106,17.4477402 83.7107755,17.6809249 C83.7530404,17.9141097 83.7004539,18.1545055 83.564675,18.3488137 L58.9416322,53.8713888 C58.8067238,54.0661594 58.5998649,54.1993733 58.3666052,54.2416971 C58.1333456,54.2840209 57.8928129,54.2319839 57.697972,54.0970445 L57.4049256,53.8935259 C57.2101946,53.7586341 57.0770746,53.5519793 57.0348515,53.3190248 C56.9926284,53.0860702 57.0447609,52.8458991 57.1797802,52.651348 Z M58.2161637,56.0790306 L58.2447536,55.7219803 C58.2844186,55.2310179 58.7146337,54.8649469 59.2060887,54.9039782 L102.308922,58.3809338 C102.545123,58.4000463 102.764049,58.5121301 102.917529,58.692524 C103.07101,58.8729179 103.14647,59.106842 103.127307,59.3428272 L103.098717,59.6998775 C103.059238,60.190983 102.628966,60.5572624 102.137382,60.5182367 L59.0345493,57.0409241 C58.5429836,57.0011166 58.1766756,56.5708943 58.2161637,56.0797447 L58.2161637,56.0790306 Z M9.41322132,52.1418372 L9.44181121,51.7847869 C9.46074723,51.548268 9.5731574,51.3290138 9.75420904,51.1754602 C9.93526068,51.0219065 10.1700538,50.9466903 10.40672,50.9664277 L53.5059793,54.4437404 C53.7425116,54.4620188 53.9619572,54.5738683 54.1156084,54.754463 C54.2692596,54.9350577 54.3444048,55.1694568 54.3243649,55.4056338 L54.295775,55.7626841 C54.2561101,56.2536465 53.825895,56.6197175 53.33444,56.5806863 L10.2316069,53.1033736 C9.74019222,53.0635626 9.37394113,52.633567 9.41322132,52.1425513 L9.41322132,52.1418372 Z M51.6833738,101.414775 L55.164193,58.3420153 C55.2038579,57.8510529 55.634073,57.4849818 56.125528,57.5240131 L56.4829016,57.5525771 C56.7191032,57.5716897 56.9380287,57.6837735 57.0915091,57.8641674 C57.2449894,58.0445612 57.3204499,58.2784854 57.3012872,58.5144706 L53.8204681,101.587231 C53.8019732,101.823234 53.6901837,102.042167 53.5097989,102.195656 C53.3294141,102.349146 53.0952819,102.424559 52.8591331,102.405233 L52.5017594,102.376669 C52.0102267,102.335926 51.644275,101.905643 51.6833738,101.414418 L51.6833738,101.414775 Z M55.6252049,52.6463493 L59.1024503,9.57358908 C59.1437848,9.08199226 59.5751522,8.71630025 60.0673591,8.7555869 L60.421159,8.78415092 C60.9138766,8.82323377 61.2817487,9.25373414 61.2431183,9.74604436 L57.7622992,52.8188045 C57.72282,53.3099101 57.2925479,53.6761894 56.8009642,53.6371638 L56.4435905,53.6082427 C56.2073218,53.5891324 55.9883387,53.4769983 55.8348483,53.2965256 C55.6813578,53.1160528 55.6059427,52.8820362 55.6252049,52.6459922 L55.6252049,52.6463493 Z" id="轮胎-5" fill="#674E44"></path>
                        </g>
                        <g id="轮胎-6">
                            <path d="M55.7502857,5.68852371 C76.1366748,5.68390355 94.5182605,17.9497003 102.322999,36.7659003 C110.127738,55.5821002 105.818456,77.2427786 91.4047369,91.6467241 C76.9910183,106.05067 55.3117022,110.360968 36.4766914,102.567561 C17.6416806,94.7741542 5.36060439,76.4119838 5.36060439,56.0440397 C5.35764364,28.2366935 27.9177569,5.69187711 55.7502857,5.68852371 L55.7502857,5.68852371 Z" id="轮胎-7" stroke="#674E44" stroke-width="20"></path>
                            <path d="M55.9289725,0.331341169 C78.5565039,0.326143507 98.9588762,13.9403058 107.621664,34.8250121 C116.284451,55.7097184 111.501481,79.7516374 95.5032398,95.7390803 C79.5049987,111.726523 55.4424077,116.510695 34.536796,107.86055 C13.6311843,99.2104041 -1.6251471e-13,78.8296236 -1.6251471e-13,56.2225648 C-0.0031581472,25.3584079 25.0368647,0.335286293 55.9289725,0.331341169 Z" id="轮胎-8" stroke="#362E2B" stroke-width="9"></path>
                            <path d="M56.91175,57.4036872 L57.2262388,57.2330171 C57.6594881,56.9975386 58.2017698,57.1573589 58.4377354,57.5900674 L79.1403895,95.5291587 C79.2538031,95.7370991 79.2798656,95.9815434 79.2128404,96.2086872 C79.1458152,96.435831 78.991196,96.6270565 78.7830159,96.7402732 L78.4721009,96.9113003 C78.0388515,97.1467789 77.4965698,96.9869585 77.2606043,96.55425 L56.5579501,58.6151587 C56.3209658,58.1829921 56.4793333,57.6407146 56.91175,57.4036872 L56.91175,57.4036872 Z M33.4751876,14.4480395 L33.7896764,14.2770124 C34.2229257,14.0415338 34.7652074,14.2013542 35.001173,14.6340627 L55.7002534,52.5727969 C55.8147429,52.7801958 55.8417789,53.0246306 55.7753773,53.252001 C55.7089757,53.4793713 55.5546128,53.670926 55.3464535,53.7842685 L55.0319647,53.9552956 C54.5987154,54.1907741 54.0564337,54.0309537 53.8204681,53.5982453 L33.1178139,15.659154 C33.0044004,15.4512136 32.9783379,15.2067693 33.0453631,14.9796255 C33.1123883,14.7524817 33.2670075,14.5612562 33.4751876,14.4480395 L33.4751876,14.4480395 Z M15.3849346,76.7804486 L53.3487349,56.0925985 C53.7819843,55.85712 54.324266,56.0169404 54.5602315,56.4496488 L54.7317709,56.763496 C54.8451844,56.9714364 54.8712469,57.2158807 54.8042217,57.4430245 C54.7371965,57.6701683 54.5825773,57.8613938 54.3743972,57.9746105 L16.4105969,78.6624607 C15.9773476,78.8979392 15.4350659,78.7381188 15.1991003,78.3054104 L15.027561,77.9919202 C14.9140341,77.783946 14.8879089,77.5394145 14.9549397,77.3121848 C15.0219705,77.0849551 15.1766591,76.8936657 15.3849346,76.7804486 L15.3849346,76.7804486 Z M58.3698344,53.3579505 L96.3336347,32.6701004 C96.7668841,32.4346218 97.3091657,32.5944422 97.5451313,33.0271506 L97.7166706,33.3406408 C97.8301975,33.548615 97.8563227,33.7931465 97.7892919,34.0203762 C97.7222611,34.2476059 97.5675726,34.4388954 97.359297,34.5521124 L59.3954967,55.2378202 C58.9622473,55.4732987 58.4199657,55.3134783 58.1840001,54.8807699 L58.0124608,54.5672798 C57.7765263,54.1343391 57.9365227,53.592282 58.3698344,53.3565223 L58.3698344,53.3579505 Z M57.697972,56.9220263 L57.9016749,56.628174 C58.0366385,56.4334605 58.2435232,56.3003187 58.4767793,56.2580625 C58.7100353,56.2158064 58.9505378,56.2679005 59.1453352,56.4028752 L94.6932898,81.0097092 C95.0970119,81.2917524 95.1975253,81.8463077 94.9184351,82.2518871 L94.7147322,82.5453824 C94.5798238,82.7401531 94.3729649,82.873367 94.1397052,82.9156907 C93.9064456,82.9580145 93.6659129,82.9059775 93.471072,82.7710382 L57.9231174,58.1634901 C57.518951,57.8814081 57.4183976,57.3263133 57.697972,56.9205981 L57.697972,56.9220263 Z M17.4505542,29.0613932 L17.6542571,28.7678979 C17.7891655,28.5731272 17.9960244,28.4399133 18.2292841,28.3975896 C18.4625437,28.3552658 18.7030764,28.4073028 18.8979174,28.5422421 L54.445872,53.1490761 C54.8495941,53.4311193 54.9501075,53.9856745 54.6710174,54.391254 L54.4673144,54.6847493 C54.332406,54.8795199 54.1255471,55.0127339 53.8922874,55.0550576 C53.6590278,55.0973814 53.4184951,55.0453444 53.2236542,54.9104051 L17.6756996,30.3035711 C17.2710885,30.0214505 17.170495,29.4658157 17.4505542,29.059965 L17.4505542,29.0613932 Z M29.3010636,92.8727046 L53.9241065,57.3501296 C54.0590148,57.155359 54.2658738,57.0221451 54.4991334,56.9798213 C54.7323931,56.9374975 54.9729258,56.9895345 55.1677667,57.1244738 L55.4608131,57.3279925 C55.6561701,57.4623907 55.7897941,57.6690968 55.8320589,57.9022816 C55.8743238,58.1354664 55.8217373,58.3758622 55.6859584,58.5701704 L31.0629156,94.0931025 C30.9279521,94.287816 30.7210673,94.4209577 30.4878113,94.4632139 C30.2545552,94.50547 30.0140527,94.4533759 29.8192554,94.3184012 L29.526209,94.1152396 C29.3309695,93.9803248 29.197498,93.7733267 29.1552568,93.5399376 C29.1130156,93.3065486 29.1654781,93.0659591 29.3010636,92.8712764 L29.3010636,92.8727046 Z M57.1797802,52.651348 L81.8028231,17.1284159 C81.9377866,16.9337024 82.1446714,16.8005606 82.3779274,16.7583045 C82.6111834,16.7160483 82.8516859,16.7681424 83.0464833,16.9031172 L83.3395297,17.1066358 C83.5348867,17.2410341 83.6685106,17.4477402 83.7107755,17.6809249 C83.7530404,17.9141097 83.7004539,18.1545055 83.564675,18.3488137 L58.9416322,53.8713888 C58.8067238,54.0661594 58.5998649,54.1993733 58.3666052,54.2416971 C58.1333456,54.2840209 57.8928129,54.2319839 57.697972,54.0970445 L57.4049256,53.8935259 C57.2101946,53.7586341 57.0770746,53.5519793 57.0348515,53.3190248 C56.9926284,53.0860702 57.0447609,52.8458991 57.1797802,52.651348 Z M58.2161637,56.0790306 L58.2447536,55.7219803 C58.2844186,55.2310179 58.7146337,54.8649469 59.2060887,54.9039782 L102.308922,58.3809338 C102.545123,58.4000463 102.764049,58.5121301 102.917529,58.692524 C103.07101,58.8729179 103.14647,59.106842 103.127307,59.3428272 L103.098717,59.6998775 C103.059238,60.190983 102.628966,60.5572624 102.137382,60.5182367 L59.0345493,57.0409241 C58.5429836,57.0011166 58.1766756,56.5708943 58.2161637,56.0797447 L58.2161637,56.0790306 Z M9.41322132,52.1418372 L9.44181121,51.7847869 C9.46074723,51.548268 9.5731574,51.3290138 9.75420904,51.1754602 C9.93526068,51.0219065 10.1700538,50.9466903 10.40672,50.9664277 L53.5059793,54.4437404 C53.7421809,54.4628529 53.9611064,54.5749367 54.1145868,54.7553306 C54.2680671,54.9357245 54.3435276,55.1696486 54.3243649,55.4056338 L54.295775,55.7626841 C54.2561101,56.2536465 53.825895,56.6197175 53.33444,56.5806863 L10.2316069,53.1033736 C9.74019222,53.0635626 9.37394113,52.633567 9.41322132,52.1425513 L9.41322132,52.1418372 Z M51.6833738,101.414775 L55.164193,58.3420153 C55.2038579,57.8510529 55.634073,57.4849818 56.125528,57.5240131 L56.4829016,57.5525771 C56.7191032,57.5716897 56.9380287,57.6837735 57.0915091,57.8641674 C57.2449894,58.0445612 57.3204499,58.2784854 57.3012872,58.5144706 L53.8204681,101.587231 C53.8019732,101.823234 53.6901837,102.042167 53.5097989,102.195656 C53.3294141,102.349146 53.0952819,102.424559 52.8591331,102.405233 L52.5017594,102.376669 C52.0102267,102.335926 51.644275,101.905643 51.6833738,101.414418 L51.6833738,101.414775 Z M55.6252049,52.6463493 L59.1024503,9.57358908 C59.1437848,9.08199226 59.5751522,8.71630025 60.0673591,8.7555869 L60.421159,8.78415092 C60.9138766,8.82323377 61.2817487,9.25373414 61.2431183,9.74604436 L57.7622992,52.8188045 C57.72282,53.3099101 57.2925479,53.6761894 56.8009642,53.6371638 L56.4435905,53.6082427 C56.2073218,53.5891324 55.9883387,53.4769983 55.8348483,53.2965256 C55.6813578,53.1160528 55.6059427,52.8820362 55.6252049,52.6459922 L55.6252049,52.6463493 Z" id="轮胎-9" fill="#674E44"></path>
                        </g>
                    </g>
                    <g id="自行车-3" transform="translate(21.799791, 0.000000)">
                        <path d="M206.722774,0.584491304 C208.159416,1.79239239 207.873517,4.32030835 207.634077,4.60237807 L199.446274,14.3673711 L223.695935,42.5344395 C224.369201,43.0752228 224.837437,43.8712485 224.942396,44.7965989 C224.975854,45.0915741 224.97039,45.3819942 224.930087,45.6627379 C224.926334,45.797999 224.913415,45.930439 224.892025,46.059658 L237.981344,113.97573 C240.107042,114.716949 241.869098,116.333145 242.762458,118.487277 C244.007772,121.490068 243.319787,124.946677 241.019363,127.24502 C238.718939,129.543363 235.259199,130.230725 232.253689,128.986538 C229.248178,127.74235 227.288904,124.811685 227.289626,121.561337 C227.289626,118.629279 228.861806,116.06409 231.209867,114.661351 L218.991274,51.2643711 L147.664233,103.51688 C155.094792,106.710745 160.331288,113.89044 160.464332,122.313642 C160.646592,133.852793 151.190486,143.349616 139.336403,143.52957 C138.900403,143.536189 138.46723,143.530109 138.037259,143.511681 L74.9126595,142.943293 L74.9122741,142.941371 L74.7929839,142.942296 C65.9642007,142.910628 58.7469912,136.002878 58.6092747,127.373045 C58.6044263,127.069225 58.6084131,126.767272 58.621004,126.467419 L41.641767,124.796274 C41.2459011,125.828828 40.6336957,126.787769 39.8193795,127.601565 C37.5192518,129.900224 34.0596241,130.588124 31.0538787,129.344464 C28.0481333,128.100805 26.0882744,125.170535 26.0882744,121.920173 C26.0877059,119.78915 26.9346193,117.745214 28.4426435,116.238153 C29.1456461,115.535599 29.9654657,114.976556 30.8564985,114.579899 L31.8419901,55.6880606 C31.8527113,54.9000506 33.3822704,54.2827107 35.2549082,54.3094895 C35.5188799,54.3132643 35.7757504,54.3296322 36.0222365,54.3571762 C36.2503908,54.27995 36.4912665,54.2252272 36.7415825,54.1970186 L112.964274,49.0763711 L109.352756,41.7866651 C109.05971,41.1861065 110.18901,40.0331912 111.87224,39.2116185 C113.55547,38.3900458 115.163651,38.2111636 115.456697,38.8113651 L120.298274,48.5833711 L214.607274,42.2493711 L195.083274,19.5703711 L185.280357,31.2629652 C185.040916,31.5446779 183.68647,30.7941582 182.253402,29.5848289 C180.820334,28.3754996 179.848277,27.1715261 180.087718,26.8894564 L202.273472,0.673753873 C202.512913,0.392041204 205.286132,-0.623409784 206.722774,0.584491304 Z M119.671274,62.6143711 L43.8132741,118.191371 L60.4375561,119.828761 C62.8435121,115.335504 67.4042677,112.098305 72.8066779,111.435528 L72.8005814,111.339702 L134.136462,102.283561 C135.189163,102.046442 136.271929,101.884513 137.378572,101.803979 L137.663895,101.762542 L137.664368,101.785025 C137.97231,101.766588 138.282046,101.754448 138.593445,101.748738 L138.936274,101.497371 L119.671274,62.6143711 Z M116.221274,55.6513711 L38.5432741,60.8693711 L37.6471837,114.692667 C37.6888152,114.712893 37.7302613,114.733473 37.7715175,114.754403 L116.952274,57.1263711 L116.221274,55.6513711 Z M210.131274,49.3433711 L123.556274,55.1583711 L144.496274,97.4243711 L210.131274,49.3433711 Z" id="自行车-4" fill="#305DCE"></path>
                        <path d="M126.510264,36.744044 C126.510264,36.744044 120.370585,40.4612945 113.28744,42.0997982 C108.599229,43.1604851 103.798096,43.640164 98.9924945,43.5279993 C98.9924945,43.5279993 89.3577015,43.3562581 86.1270439,38.1722451 C77.7430587,24.7114497 96.8482527,26.0296793 96.8482527,26.0296793 C96.8482527,26.0296793 101.247522,26.4456429 106.139967,27.4578804 C110.767955,28.4154893 120.506387,31.1390688 124.366022,32.8136346 C129.34781,34.9787874 126.510264,36.744044 126.510264,36.744044 Z" id="自行车-5" fill="#171717"></path>
                        <path d="M6.43272527,48.8866098 L62.183011,48.8866098 C65.735707,48.8866098 68.6157362,51.7640332 68.6157362,55.3135148 L68.6157362,55.3163712 C68.6157362,58.8658528 65.735707,61.7432762 62.183011,61.7432762 L6.43272527,61.7432762 C2.88002921,61.7432762 0,58.8658528 0,55.3163712 L0,55.3135148 C0,51.7640332 2.88002921,48.8866098 6.43272527,48.8866098 Z" id="自行车-6" fill="#575454"></path>
                        <path d="M13.5801978,47.815102 C14.1723138,47.815102 14.6523187,48.2946725 14.6523187,48.8862528 L14.6523187,61.386583 C14.6523187,61.9781633 14.1723138,62.4577338 13.5801978,62.4577338 C12.9880818,62.4577338 12.5080769,61.9781633 12.5080769,61.386583 L12.5080769,48.8862528 C12.5080769,48.2946725 12.9880818,47.815102 13.5801978,47.815102 Z M27.1603956,47.815102 C27.7525116,47.815102 28.2325165,48.2946725 28.2325165,48.8862528 L28.2325165,61.386583 C28.2325165,61.9781633 27.7525116,62.4577338 27.1603956,62.4577338 C26.5682796,62.4577338 26.0882747,61.9781633 26.0882747,61.386583 L26.0882747,48.8862528 C26.0882747,48.2946725 26.5682796,47.815102 27.1603956,47.815102 Z M40.7405934,47.815102 C41.3327094,47.815102 41.8127143,48.2946725 41.8127143,48.8862528 L41.8127143,61.386583 C41.8127143,61.9781633 41.3327094,62.4577338 40.7405934,62.4577338 C40.1484774,62.4577338 39.6684725,61.9781633 39.6684725,61.386583 L39.6684725,48.8862528 C39.6684725,48.2946725 40.1484774,47.815102 40.7405934,47.815102 Z M54.3207912,47.815102 C54.9129072,47.815102 55.3929121,48.2946725 55.3929121,48.8862528 L55.3929121,61.386583 C55.3929121,61.9781633 54.9129072,62.4577338 54.3207912,62.4577338 C53.7286752,62.4577338 53.2486703,61.9781633 53.2486703,61.386583 L53.2486703,48.8862528 C53.2486703,48.2946725 53.7286752,47.815102 54.3207912,47.815102 Z" id="自行车-7" fill="#787474"></path>
                        <ellipse id="自行车-8" fill="#416DDB" fill-rule="nonzero" cx="139.197027" cy="122.635702" rx="14.1162582" ry="14.1034859"></ellipse>
                        <path d="M95.5116754,108.287279 L103.26115,116.658821 L135.915244,120.637907 C136.695627,119.574768 137.954991,118.884531 139.375714,118.884531 C141.744178,118.884531 143.664198,120.802814 143.664198,123.169135 C143.664198,125.535456 141.744178,127.453738 139.375714,127.453738 C137.344891,127.453738 135.643769,126.043401 135.200026,124.149567 L107.01415,120.714821 L108.169849,121.962305 C109.631507,123.542966 109.760162,125.801666 108.455748,127.007068 C107.151334,128.21247 104.910602,127.908263 103.44537,126.328673 L90.787196,112.653647 C89.3255379,111.072628 89.1968834,108.813928 90.5012971,107.608527 C91.8057109,106.403125 94.0464435,106.706618 95.5116754,108.287279 Z" id="自行车-9" fill="#575454"></path>
                    </g>
                </g>
                <g id="腿-3" transform="translate(112.000000, 124.000000)">
                    <g id="脚_2" transform="translate(0.000000, 82.234640)">
                        <path d="M20.316726,12.5025256 L18.3807829,15.6950174 C18.313724,16.5611171 18.4414312,17.4312793 18.7544484,18.2410733 C19.2507934,19.3538172 19.8780386,20.4028114 20.6227758,21.3656321 C20.6227758,21.3656321 24.7153025,26.4591742 25.2384342,30.185476 C25.7366548,33.707979 22.6654804,35.874683 22.6654804,35.874683 L21.8683274,36.5944148 L0.0391459075,12.5289837 L10.9359431,2.69336323 L20.8505338,12.0230619 L20.316726,12.5025256 Z" id="脚_3" fill="#1B1B1B"></path>
                        <polygon id="脚_4" fill="#FFDEC4" points="19.8896797 10.9650954 22.3096085 7.53054778 14.5907473 0.102972071 11.4163701 3.22216772"></polygon>
                    </g>
                    <path d="M8.89679715,20.7034645 C8.89679715,20.7034645 28.2135231,29.0942581 41.8185053,31.3886046 C55.2348754,33.6511298 66.9039146,35.3662584 66.9039146,35.3662584 C66.9039146,35.3662584 61.8362989,37.4607389 55.8434164,42.5735883 C39.9928826,56.0983262 14.5907473,82.3419027 14.5907473,82.3419027 L24.4911032,91.8696796 C24.4911032,91.8696796 55.0925267,70.0195782 76.4733096,52.9294322 C90.7758007,41.4963145 97.9252669,31.801923 97.9252669,31.801923 C97.9252669,31.801923 99.7366548,28.7828391 99.9857651,25.5882021 C100.41637,20.0602466 91.8149466,16.7687157 91.8149466,16.7687157 L53.3701068,0.317854761 C53.3701068,0.317854761 40.7437722,4.18967614 31.9181495,10.2600227 C21.8505338,17.1838219 8.89679715,20.7034645 8.89679715,20.7034645 Z" id="腿-4" fill="#262626"></path>
                </g>
                <g id="头" transform="translate(154.000000, 0.000000)">
                    <path d="M31.9169903,14.6668099 C31.9169903,14.6668099 33.4939806,31.1423239 30.4800971,39.4933944 C27.75,47.0622254 21.7258252,43.6337324 21.7258252,43.6337324 L16.1650485,48.4295282 C16.1650485,48.4295282 13.0936893,51.2977394 10.4174757,50.5844577 C0.772330097,48.0161408 4.31067961,44.119669 4.31067961,44.119669 C4.31067961,44.119669 10.313301,39.0670775 10.0582524,36.9365704 C9.61640777,33.2132113 8.90873786,31.9443169 8.90873786,31.9443169 C8.90873786,31.9443169 -4.03407767,5.07557746 24.3768932,6.18464789 C31.4535922,6.45832394 31.9169903,14.6668099 31.9169903,14.6668099 Z" id="微博_杨锦Vincent" fill="#FFDEC4"></path>
                    <path d="M22.3616505,16.0265704 C22.3616505,16.0265704 28.8348544,17.0753028 31.8092233,17.4147042 C36.5366019,17.9534366 36.845534,13.6960141 36.845534,13.6960141 C36.710437,10.7512708 35.6353042,7.92725554 33.777767,5.63801408 C29.8227184,0.802711268 23.8524272,0.142943662 23.8524272,0.142943662 C23.8524272,0.142943662 17.1600971,-0.961098592 18.0653398,3.0129507 C18.9705825,6.987 10.1121359,5.65489437 10.1121359,5.65489437 C10.1121359,5.65489437 0.646601942,2.61249296 0.323300971,11.0188732 C-0.129320388,22.6953592 9.42961165,34.0622535 9.42961165,34.0622535 L12.7272816,35.3835845 L10.9814563,29.4934437 C10.9814563,29.4934437 6.35466019,27.5417958 6.50194175,23.6033028 C6.64203883,19.8558803 11.0676699,22.4281479 11.0676699,22.4281479 L12.3896117,27.3288169 L15.0299029,28.9324437 L14.1749515,21.4882394 C14.1749515,21.4882394 14.1713592,18.2799085 15.8668932,17.2502113 C18.345534,15.7367324 22.3616505,16.0265704 22.3616505,16.0265704 Z" id="站酷_杨锦Vincent" fill="#5A2F02"></path>
                </g>
                <g id="上身" transform="translate(114.000000, 41.000000)">
                    <path d="M50.4208861,40.8265954 L59.4358544,55.3433158 C59.8452159,55.8354101 60.3233786,56.2655806 60.8555063,56.6204803 C67.5246519,60.6391382 100.677278,80.1938816 100.677278,80.1938816 C101.553912,80.6846491 102.204531,81.4995218 102.490285,82.4645954 C103.570222,85.8145526 104.328323,91.5001217 104.328323,91.5001217 C104.328323,91.5001217 104.764589,92.6546612 105.730095,92.4398882 C106.76712,92.2096974 108.694557,90.9282303 108.694557,90.9282303 C108.694557,90.9282303 111.884304,89.022523 112.789019,85.2964441 C113.532816,82.2333289 112.016614,77.2193289 112.016614,77.2193289 C112.016614,77.2193289 111.519557,75.0597664 110.167848,74.2741776 C108.249892,73.1515564 106.275757,72.1283365 104.253228,71.2085526 L72.0911392,46.1851645 L64.0094937,32.9366447 L50.4208861,40.8265954 Z" id="胳膊" fill="#FFD2AF"></path>
                    <g id="衣服">
                        <polygon id="衣服-2" fill="url(#linearGradient-1)" points="59.0031646 13.9290526 67.943038 34.0126612 56.1424051 40.4666086"></polygon>
                        <path d="M45.414557,0.300825658 C45.414557,0.300825658 45.697057,2.90822039 49.3481013,4.60345724 C53.0277532,6.31411184 58.6455696,6.75477303 58.6455696,6.75477303 C58.6455696,6.75477303 59.9436392,7.62820724 60.4335443,9.98174671 C60.9580293,12.6978864 61.0785343,15.4769239 60.7911392,18.2284572 L53.2816456,84.5761118 C53.2816456,84.5761118 40.7729747,87.6316974 30.7531646,93.5420789 C22.7644937,98.2538191 14.3037975,107.169947 14.3037975,107.169947 C14.3037975,107.169947 3.83699367,104.964849 1.43037975,98.5646842 C-1.87022152,89.7844474 2.14556962,78.8396283 2.14556962,78.8396283 L22.1708861,29.7068026 C22.1708861,29.7068026 27.4918987,16.4514704 32.1835443,9.98174671 C36.8215506,3.59269737 45.414557,0.300825658 45.414557,0.300825658 Z" id="衣服-3" fill="#FF6E47"></path>
                        <polygon id="衣服-4" fill="url(#linearGradient-2)" points="28.25 22.5361086 42.1962025 55.5304803 61.1487342 45.1303026 47.5601266 11.7770197"></polygon>
                    </g>
                    <path d="M42.8398734,55.0421316 L49.8952215,70.0393125 C50.3356841,70.5560447 50.8474354,71.007109 51.415,71.3788651 C58.5239873,75.5689112 93.8436392,95.9494013 93.8436392,95.9494013 C94.778545,96.4607467 95.476768,97.3186179 95.7889557,98.3395132 C96.9725949,101.883447 97.8379747,107.91 97.8379747,107.91 C97.8379747,107.91 98.3135759,109.129079 99.3362975,108.891717 C100.430538,108.634993 102.454525,107.252414 102.454525,107.252414 C102.454525,107.252414 105.812342,105.19253 106.724209,101.22622 C107.475158,97.9659013 105.815918,92.6600395 105.815918,92.6600395 C105.815918,92.6600395 105.265222,90.3731908 103.824114,89.5542566 C101.781643,88.3853516 99.6810221,87.321697 97.530443,86.3674408 L63.1906013,60.171227 L57.9303797,46.9234243 L42.8398734,55.0421316 Z" id="胳膊-2" fill="#FFDEC4"></path>
                </g>
            </g>
        </g>
    </g>
</svg>