<?xml version="1.0" standalone="no"?><!DOCTYPE svg PUBLIC "-//W3C//DTD SVG 1.1//EN" "http://www.w3.org/Graphics/SVG/1.1/DTD/svg11.dtd"><svg t="1678287101213" class="icon" viewBox="0 0 1024 1024" version="1.1" xmlns="http://www.w3.org/2000/svg" p-id="856" xmlns:xlink="http://www.w3.org/1999/xlink" width="200" height="200"><path d="M509 65c117.084 0 212 94.916 212 212v57h63c70.692 0 128 57.308 128 128v368c0 70.692-57.308 128-128 128H240c-70.692 0-128-57.308-128-128V462c0-70.692 57.308-128 128-128h57v-57c0-117.084 94.916-212 212-212z m2 476c-17.673 0-32 14.327-32 32v144c0 17.673 14.327 32 32 32 17.673 0 32-14.327 32-32V573c0-17.673-14.327-32-32-32z m-2-412c-81.738 0-148 66.262-148 148v57h296v-57c0-81.738-66.262-148-148-148z" fill="#707070" p-id="857"></path></svg>